<svg width="24" height="20" viewBox="0 0 24 20" fill="none" xmlns="http://www.w3.org/2000/svg">
<path d="M2.84 19.2C5.90267 19.2 8.204 16.64 9.57733 14.6187C9.41359 15.0418 9.32558 15.4904 9.31733 15.944C9.31733 17.124 10.024 17.9653 11.416 17.9653C13.3267 17.9653 15.3693 16.3547 16.4267 14.6187C16.3589 14.8456 16.3217 15.0806 16.316 15.3173C16.316 16.14 16.7987 16.6587 17.7827 16.6587C20.8813 16.6587 24 11.38 24 6.764C24 3.16667 22.1067 0 17.3547 0C9.00267 0 0 9.80533 0 16.14C0 18.628 1.392 19.2 2.84 19.2ZM14.4787 6.37067C14.4787 5.476 14.9987 4.84933 15.7587 4.84933C16.5013 4.84933 17.0213 5.476 17.0213 6.36933C17.0213 7.26533 16.5013 7.90933 15.7587 7.90933C14.9987 7.90933 14.4787 7.26533 14.4787 6.37067ZM18.4507 6.37067C18.4507 5.476 18.9707 4.84933 19.7307 4.84933C20.4733 4.84933 20.9933 5.476 20.9933 6.36933C20.9933 7.26533 20.4733 7.90933 19.7307 7.90933C18.9707 7.90933 18.4507 7.26533 18.4507 6.37067Z" fill="#AB9FF2"/>
</svg>
