<svg width="23" height="23" viewBox="0 0 23 23" fill="none" xmlns="http://www.w3.org/2000/svg">
<g clip-path="url(#clip0_22_880)">
<path d="M11.3052 22.6104C17.5489 22.6104 22.6104 17.5489 22.6104 11.3052C22.6104 5.0615 17.5489 0 11.3052 0C5.0615 0 0 5.0615 0 11.3052C0 17.5489 5.0615 22.6104 11.3052 22.6104Z" fill="black"/>
<path d="M16.3431 6.5654L14.6473 7.43024L6.45246 11.604C6.33571 10.707 6.47043 9.79531 6.84162 8.97048C7.2128 8.14566 7.80584 7.44017 8.55459 6.93273C9.30333 6.42528 10.1783 6.13584 11.082 6.09668C11.9856 6.05752 12.8824 6.27018 13.6722 6.71095L14.6431 6.21635L14.7879 6.14216C13.8669 5.4738 12.7739 5.08295 11.6379 5.01576C10.5019 4.94857 9.37044 5.20784 8.37706 5.76296C7.38368 6.31808 6.56989 7.14587 6.0318 8.14857C5.4937 9.15127 5.25376 10.287 5.34032 11.4217C5.35651 11.6351 5.3092 11.8485 5.20434 12.0351C5.09948 12.2217 4.94176 12.3731 4.75104 12.4702L4.23877 12.7317V13.9498L5.7466 13.181L6.23484 12.9316L6.71602 12.6864L15.3546 8.28449L16.3254 7.7906L18.3321 6.76818V5.55076L16.3431 6.5654ZM18.3328 7.98702L7.20779 13.6509L6.23696 14.1455L4.23948 15.1651V16.3825L6.22353 15.3721L7.92002 14.5073L16.1233 10.3272C16.2419 11.2255 16.1081 12.1391 15.7369 12.9656C15.3657 13.7922 14.7718 14.4992 14.0217 15.0074C13.2715 15.5156 12.3947 15.805 11.4894 15.8432C10.5842 15.8814 9.6861 15.6669 8.8958 15.2237L8.83574 15.2555L7.78294 15.7925C8.7041 16.4613 9.79742 16.8524 10.9337 16.9196C12.07 16.9868 13.2018 16.7274 14.1954 16.172C15.189 15.6166 16.0029 14.7884 16.5408 13.7852C17.0788 12.782 17.3184 11.6459 17.2312 10.5109C17.2156 10.2977 17.2631 10.0847 17.3677 9.89835C17.4724 9.712 17.6296 9.5606 17.8198 9.46306L18.3328 9.20162V7.98773V7.98702Z" fill="white"/>
</g>
<defs>
<clipPath id="clip0_22_880">
<rect width="22.6104" height="22.6104" fill="white"/>
</clipPath>
</defs>
</svg>
